<?xml version="1.0" encoding="iso-8859-1"?>
<!-- Generator: Adobe Illustrator 19.0.0, SVG Export Plug-In . SVG Version: 6.00 Build 0)  -->
<svg version="1.1" id="&#x56FE;&#x5C42;_1" xmlns="http://www.w3.org/2000/svg" xmlns:xlink="http://www.w3.org/1999/xlink" x="0px"
	 y="0px" viewBox="-197 320.89 200 200" style="enable-background:new -197 320.89 200 200;" xml:space="preserve">
<path d="M-19.908,344.197L-97,320.89l-77.092,23.307c-6.375,1.992-10.558,7.371-10.558,13.944l0.398,88.845l0.199,1.793l0.199,0.996
	c0.598,2.988,4.781,18.924,20.916,33.865c12.55,11.753,42.231,26.693,54.781,32.868l1.394,0.797c0.996,0.598,1.992,0.996,2.59,1.394
	l1.394,0.797c1.594,0.797,3.586,1.394,5.378,1.394s3.586-0.398,4.98-1.195l1.992-0.996c10.359-4.781,45.418-21.713,59.562-34.861
	c16.534-15.538,20.518-32.072,20.916-34.064l0.199-0.797l0.398-90.837C-9.351,351.567-13.534,345.99-19.908,344.197L-19.908,344.197
	z M-21.701,447.384c-0.598,2.39-4.183,15.139-17.331,27.291c-10.159,9.562-36.853,23.506-56.375,32.869l-1.992,0.996l-1.195-0.598
	c-0.598-0.398-1.594-0.797-2.789-1.394l-1.594-0.996c-12.151-5.976-40.637-20.319-51.992-30.876
	c-13.147-12.351-16.733-25.299-17.331-27.49v-0.598l-0.398-88.645c0-0.996,0.797-1.992,1.992-2.39L-97,333.44l73.705,22.311
	c1.195,0.398,1.992,1.195,1.992,2.39L-21.701,447.384L-21.701,447.384z"/>
<path d="M-66.323,391.209c0-17.729-14.542-32.271-32.271-32.271s-32.271,14.542-32.271,32.271c0,15.538,10.956,28.486,25.697,31.474
	v47.809c0,3.187,2.789,5.976,5.976,5.976h1.195c3.386,0,5.976-2.789,5.976-5.976V445.99h16.932c3.386,0,5.976-2.59,5.976-5.976
	v-1.195c0-3.187-2.59-5.976-5.976-5.976H-92.02v-9.96C-77.478,419.695-66.323,406.747-66.323,391.209L-66.323,391.209z
	 M-118.912,391.209c0-11.155,9.163-20.319,20.319-20.319s20.319,9.163,20.319,20.319c0,11.155-9.163,20.319-20.319,20.319
	S-118.912,402.364-118.912,391.209z"/>
</svg>
