<?xml version="1.0" encoding="iso-8859-1"?>
<!-- Generator: Adobe Illustrator 19.0.0, SVG Export Plug-In . SVG Version: 6.00 Build 0)  -->
<svg version="1.1" id="&#x56FE;&#x5C42;_1" xmlns="http://www.w3.org/2000/svg" xmlns:xlink="http://www.w3.org/1999/xlink" x="0px"
	 y="0px" viewBox="-197 320.89 200 200" style="enable-background:new -197 320.89 200 200;" xml:space="preserve">
<g>
	<path d="M-65.092,503.776c-9.53,0.044-20.517,0.049-30.97,0.049c-47.265,0-70.797-0.178-82.348-1.803
		c-7.459-1.05-7.459-1.05-7.459-5.528c0-9.049,12.541-20.194,24.615-25.72c9.825-3.902,27.928-10.326,40.05-13.899
		c5.235-1.579,5.235-5.947,5.235-10.571c0-6.079-0.767-10.529-2.412-14.003c-1.507-3.195-3.426-8.901-4.075-13.88l-0.217-1.663
		l-1.101-1.266c-1.328-1.528-3.806-5.33-5.482-13.63c-1.405-7.005-0.706-8.835-0.163-10.261c0.211-0.481,0.437-1.043,0.666-1.935
		c0.719-3.299-0.224-14.335-1.486-21.275c-0.739-4.01,0.316-13.204,6.29-20.802c3.813-4.852,11.132-10.811,24.275-11.647l8.432-0.01
		c13.589,0.883,20.964,6.826,24.757,11.655c5.963,7.594,7.018,16.796,6.282,20.814c-1.259,6.92-2.183,18.021-1.434,21.462
		c0.141,0.557,0.349,1.105,0.512,1.512c0.629,1.625,1.342,3.467-0.06,10.485c-1.666,8.276-4.156,12.098-5.492,13.64l-1.091,1.259
		l-0.217,1.651c-0.664,5.005-2.577,10.708-4.072,13.885c-1.882,3.975-3.805,8.726-3.805,13.824c0,4.601,0,8.947,5.349,10.612
		c9.455,2.784,23.884,7.604,35.09,11.721l1.013,0.372l3.838-10.452l-1.013-0.372c-10.266-3.771-23.463-8.214-33.143-11.161
		c-0.002-0.225-0.003-0.466-0.003-0.72c0-2.898,1.386-6.211,2.745-9.074c1.661-3.535,3.783-9.466,4.804-15.598
		c3.104-4.168,5.431-10.019,6.915-17.399c1.707-8.536,1.103-12.628-0.519-16.808c-0.116-1.981,0.255-9.809,1.538-16.84
		c1.349-7.381-0.728-19.82-8.48-29.693c-5.218-6.641-15.171-14.79-32.952-15.897l-0.217-0.012l-9.134,0.02
		c-17.548,1.102-27.453,9.247-32.672,15.887c-7.77,9.879-9.846,22.316-8.488,29.687c1.268,6.999,1.652,14.805,1.546,16.803
		l-0.068,0.166c-1.587,4.125-2.171,8.179-0.458,16.695c1.489,7.395,3.812,13.244,6.908,17.39c1.01,6.129,3.141,12.066,4.816,15.613
		c0.905,1.909,1.345,4.932,1.345,9.243c0,0.254-0.001,0.493-0.003,0.718c-12.783,3.909-29.254,9.827-38.521,13.515
		c-15.112,6.91-31.376,21.11-31.376,35.958c0,9.676,2.154,14.076,15.501,16.275c13.274,2.187,38.906,2.187,85.437,2.187
		c10.465,0,21.466-0.006,31.017-0.049l1.079-0.005l-0.047-11.131L-65.092,503.776z"/>
	<path d="M-12.839,476.7h-39.108c-0.788,0-1.417,0.242-1.871,0.717c-0.913,0.958-0.841,2.521-0.763,4.177
		c0.02,0.435,0.041,0.873,0.041,1.297c0,0.464-0.025,0.879-0.047,1.247c-0.059,1.007-0.111,1.878,0.479,2.505
		c0.556,0.59,1.447,0.666,2.161,0.666h47.601c2.863,0,5.592-1.952,6.488-4.641c0.682-2.045,1.233-5.119-1.83-8.183l-7.356-7.356
		c-0.93-0.929-2.33-1.462-3.841-1.462c-1.512,0-2.912,0.533-3.842,1.462c-0.93,0.93-1.463,2.33-1.463,3.841
		c0,1.512,0.533,2.912,1.463,3.842L-12.839,476.7z"/>
	<path d="M-1.896,495.745h-46.593c-2.864,0-5.593,1.952-6.488,4.641c-0.682,2.045-1.235,5.12,1.83,8.183l6.54,6.539
		c0.833,0.833,1.87,1.871,3.839,1.871c1.127,0,2.958-0.989,3.842-1.872c1.938-1.938,1.938-5.744,0-7.683l-1.888-1.887h38.918
		c2.882,0,4.896-2.013,4.896-4.896C3,497.759,0.987,495.745-1.896,495.745z"/>
</g>
</svg>
