<?xml version="1.0" encoding="utf-8"?>
<!-- Generator: Adobe Illustrator 19.0.0, SVG Export Plug-In . SVG Version: 6.00 Build 0)  -->
<svg version="1.1" id="图层_1" xmlns="http://www.w3.org/2000/svg" xmlns:xlink="http://www.w3.org/1999/xlink" x="0px" y="0px"
	 viewBox="-197 320.9 200 200" style="enable-background:new -197 320.9 200 200;" xml:space="preserve">
<g>
	<path d="M-40.3,399.1v-0.6c0,0-1.5,0-2.1,0c-1,0-2.1,0-3.7,0c-1.3,0-2.9,0-4.9,0h-0.6v0.6c0.1,3.2,0.1,5.5-1,11
		c-4.7,23.1-17.9,42.9-40.4,60.6c-5.2,4-17.3,12.9-21.8,15c-3.6,1.7-7.6,2.6-11.5,2.6c-5,0-9.8-1.5-13.9-4.2
		c-4.3-2.8-8.3-6.1-12-9.8c-28.3-28.2-30.1-74.2-4.2-104.6l0.2-0.2l-4-13.7l-0.7,0.7c-16.9,16.9-26.2,39.4-26.2,63.3
		c0,23.9,9.3,46.4,26.2,63.3c7,7,13.7,12.6,23.8,17.2c2.3,1,6.5,1.7,10.8,1.7c6.1,0,11.9-1.3,16.3-3.8c8.2-4.7,16-10.2,23.3-16.1
		C-69.2,467.9-40.1,438.2-40.3,399.1z"/>
	<path d="M-18.2,378.4c-11.6-20.9-30.6-36-53.6-42.6c-3-0.9-14-3.7-27.1-3.7c-15.6,0-27.5,3.9-35.3,11.7
		c-6.7,9.7-11.9,29.5-8.4,52.1c3.6,23.3,16.5,49.8,22.9,60.5l0.6-0.2l0.3,0.3c0.3-0.3,5.5-4,8.6-6.2l0.4-0.3l-1.3-2.4
		c-3.3-6-7.4-13.5-10.9-22.6c-10.2-27.7-9.2-40.8-8.3-52.4c0.6-8,3.3-22,14.4-25.5c6.4-1.7,12.9-2.5,19.5-2.5c7.1,0,14.3,1,21.3,3
		c19.8,5.7,36.2,18.8,46.2,36.8s12.4,38.9,6.7,58.7c-8,27.9-30.6,48.8-59.1,54.5l-0.6,0.1l2.4,11.9l0.6-0.1
		c33-6.6,59.2-30.8,68.5-63.1C-3.9,423.5-6.6,399.3-18.2,378.4z"/>
	<path d="M-96,432.8c3.1-4,30.2-39.5,30.8-41.3c0.9-2.7,1.7-9.5-1.6-15.7c-2.5-4.7-6.9-8.1-13.1-9.9c-2.4-0.7-4.7-1.1-7-1.1
		c-8,0-12.7,4.2-14.8,6.7c-2.8,3.4-4.3,7.6-3.7,10.9l8.6,51.4L-96,432.8z"/>
</g>
</svg>
